<svg width="96" height="89" viewBox="0 0 96 89" fill="none" xmlns="http://www.w3.org/2000/svg">
<path d="M0.0374356 87.3974C-0.111803 87.9291 0.198276 88.4812 0.730015 88.6304C1.26175 88.7797 1.81379 88.4696 1.96303 87.9378L1.00023 87.6676L0.0374356 87.3974ZM95.4768 8.82001C95.9087 8.47581 95.9798 7.84665 95.6356 7.41474L90.0265 0.376376C89.6823 -0.0555324 89.0532 -0.126632 88.6213 0.217565C88.1894 0.561764 88.1183 1.19092 88.4625 1.62283L93.4483 7.87916L87.192 12.865C86.7601 13.2092 86.689 13.8383 87.0331 14.2703C87.3773 14.7022 88.0065 14.7733 88.4384 14.4291L95.4768 8.82001ZM1.00023 87.6676L1.96303 87.9378C15.8353 38.5105 50.4977 4.03159 94.7413 9.03164L94.8536 8.03797L94.9658 7.04429C49.3165 1.88537 14.0372 37.5158 0.0374356 87.3974L1.00023 87.6676Z" fill="black" fill-opacity="0.6"/>
</svg>
