<svg width="85" height="100" viewBox="0 0 85 100" fill="none" xmlns="http://www.w3.org/2000/svg">
<path d="M0.00963455 1.13773C-0.0663787 0.590705 0.315455 0.0856299 0.862483 0.00961678C1.40951 -0.0663964 1.91459 0.315437 1.9906 0.862466L1.00012 1.0001L0.00963455 1.13773ZM83.9551 91.8915C84.3365 92.2909 84.3219 92.9239 83.9225 93.3053L77.4138 99.5211C77.0144 99.9026 76.3814 99.888 76 99.4886C75.6185 99.0892 75.6331 98.4562 76.0325 98.0747L81.818 92.5496L76.2929 86.764C75.9114 86.3646 75.926 85.7316 76.3254 85.3502C76.7248 84.9688 77.3578 84.9833 77.7392 85.3827L83.9551 91.8915ZM1.00012 1.0001L1.9906 0.862466C9.05634 51.711 38.7415 90.5578 83.2549 91.5824L83.2319 92.5821L83.2089 93.5818C37.2811 92.5247 7.14031 52.4536 0.00963455 1.13773L1.00012 1.0001Z" fill="black" fill-opacity="0.6"/>
</svg>
