<svg width="145" height="71" viewBox="0 0 145 71" fill="none" xmlns="http://www.w3.org/2000/svg">
<path d="M143.287 2.09316C143.833 2.1735 144.211 2.68158 144.13 3.22799C144.05 3.7744 143.542 4.15223 142.996 4.07189L143.141 3.08253L143.287 2.09316ZM5.60326 70.2237C5.11296 70.4779 4.5094 70.2865 4.2552 69.7962L0.112495 61.8063C-0.141727 61.3161 0.0496576 60.7125 0.539954 60.4583C1.03025 60.2041 1.63381 60.3955 1.88802 60.8858L5.57042 67.9879L12.6725 64.3055C13.1628 64.0512 13.7664 64.2426 14.0206 64.7329C14.2748 65.2232 14.0834 65.8268 13.5931 66.081L5.60326 70.2237ZM143.141 3.08253L142.996 4.07189C79.7696 -5.22389 22.8864 16.6879 6.09618 69.6382L5.14295 69.3359L4.18973 69.0337C21.4076 14.7348 79.5937 -7.27125 143.287 2.09316L143.141 3.08253Z" fill="black" fill-opacity="0.6"/>
</svg>
