<svg width="122" height="77" viewBox="0 0 122 77" fill="none" xmlns="http://www.w3.org/2000/svg">
<path d="M0.726135 4.55577C0.195009 4.70718 -0.112815 5.26048 0.0385905 5.79161C0.189996 6.32273 0.743297 6.63056 1.27442 6.47915L1.00028 5.51746L0.726135 4.55577ZM115.256 76.0472C115.723 76.3416 116.341 76.2014 116.635 75.7341L121.432 68.119C121.727 67.6517 121.586 67.0343 121.119 66.7399C120.652 66.4455 120.034 66.5857 119.74 67.053L115.476 73.822L108.707 69.558C108.24 69.2636 107.622 69.4038 107.328 69.8711C107.034 70.3384 107.174 70.9559 107.641 71.2502L115.256 76.0472ZM1.00028 5.51746L1.27442 6.47915C27.4608 -0.985672 52.331 0.852291 72.3806 12.1977C92.4203 23.5375 107.783 44.4536 114.814 75.4225L115.789 75.2011L116.764 74.9797C109.634 43.5733 93.987 22.126 73.3655 10.457C52.7539 -1.20636 27.3107 -3.02257 0.726135 4.55577L1.00028 5.51746Z" fill="black" fill-opacity="0.6"/>
</svg>
