<svg width="108" height="33" viewBox="0 0 108 33" fill="none" xmlns="http://www.w3.org/2000/svg">
<path d="M0.313807 30.6604C-0.0879344 31.0394 -0.106389 31.6723 0.272586 32.074C0.651562 32.4758 1.28446 32.4942 1.6862 32.1153L1 31.3879L0.313807 30.6604ZM106.442 15.0963C106.989 15.0237 107.374 14.5209 107.301 13.9734L106.117 5.05167C106.045 4.50418 105.542 4.11925 104.995 4.19191C104.447 4.26457 104.062 4.76729 104.135 5.31477L105.187 13.2452L97.2567 14.2977C96.7092 14.3703 96.3243 14.873 96.397 15.4205C96.4696 15.968 96.9723 16.3529 97.5198 16.2803L106.442 15.0963ZM1 31.3879L1.6862 32.1153C34.0421 1.59291 75.1246 -8.51372 105.702 14.899L106.31 14.105L106.918 13.311C75.2172 -10.9617 33.0129 -0.185675 0.313807 30.6604L1 31.3879Z" fill="black" fill-opacity="0.6"/>
</svg>
