<svg width="209" height="71" viewBox="0 0 209 71" fill="none" xmlns="http://www.w3.org/2000/svg">
<path d="M207.796 12.666C208.322 12.8348 208.611 13.3979 208.442 13.9238C208.274 14.4496 207.71 14.7391 207.185 14.5703L207.49 13.6181L207.796 12.666ZM3.90745 70.1212C3.37902 70.2818 2.82049 69.9835 2.65993 69.4551L0.0434715 60.8438C-0.117089 60.3154 0.181141 59.7569 0.70957 59.5963C1.238 59.4358 1.79653 59.734 1.95709 60.2624L4.28283 67.9169L11.9373 65.5911C12.4657 65.4306 13.0243 65.7288 13.1848 66.2572C13.3454 66.7857 13.0472 67.3442 12.5187 67.5048L3.90745 70.1212ZM207.49 13.6181L207.185 14.5703C122.955 -12.4674 39.93 3.27627 4.49887 69.6354L3.61673 69.1644L2.7346 68.6934C38.833 1.08464 123.155 -14.5039 207.796 12.666L207.49 13.6181Z" fill="black" fill-opacity="0.6"/>
</svg>
