<svg width="356" height="83" viewBox="0 0 356 83" fill="none" xmlns="http://www.w3.org/2000/svg">
<path d="M0.510476 51.4442C0.0289522 51.7147 -0.142141 52.3243 0.128328 52.8058C0.398797 53.2874 1.00841 53.4584 1.48993 53.188L1.0002 52.3161L0.510476 51.4442ZM353.305 82.2041C353.854 82.2661 354.349 81.8715 354.411 81.3227L355.422 72.3796C355.484 71.8308 355.089 71.3357 354.541 71.2736C353.992 71.2116 353.497 71.6062 353.435 72.155L352.536 80.1044L344.587 79.206C344.038 79.144 343.543 79.5386 343.481 80.0874C343.419 80.6362 343.813 81.1314 344.362 81.1934L353.305 82.2041ZM1.0002 52.3161L1.48993 53.188C130.463 -19.2557 272.09 -19.2371 352.636 81.8336L353.418 81.2104L354.2 80.5872C272.772 -21.59 129.895 -21.2305 0.510476 51.4442L1.0002 52.3161Z" fill="black" fill-opacity="0.7"/>
</svg>
