<svg width="170" height="90" viewBox="0 0 170 90" fill="none" xmlns="http://www.w3.org/2000/svg">
<path d="M169.718 88.1324C170 88.6074 169.844 89.2209 169.369 89.5027C168.894 89.7845 168.28 89.6278 167.998 89.1528L168.858 88.6426L169.718 88.1324ZM0.600685 10.167C0.0944051 9.94635 -0.137107 9.35703 0.0835724 8.85075L3.67984 0.600478C3.90053 0.0942086 4.48984 -0.13732 4.99613 0.0833759C5.5024 0.304058 5.73392 0.893375 5.51324 1.39965L2.31655 8.73322L9.65012 11.9299C10.1564 12.1506 10.3879 12.7399 10.1672 13.2462C9.94655 13.7525 9.35723 13.984 8.85095 13.7633L0.600685 10.167ZM168.858 88.6426L167.998 89.1528C128.422 22.4394 64.2215 -14.5122 1.36592 10.1811L1.00027 9.25034L0.634618 8.31958C64.8069 -16.891 129.902 21.0132 169.718 88.1324L168.858 88.6426Z" fill="black" fill-opacity="0.7"/>
</svg>
