<svg width="216" height="59" viewBox="0 0 216 59" fill="none" xmlns="http://www.w3.org/2000/svg">
<path d="M0.400955 57.1071C-0.0412869 57.4379 -0.131614 58.0646 0.199203 58.5068C0.530021 58.949 1.15671 59.0394 1.59895 58.7086L0.999954 57.9078L0.400955 57.1071ZM214.866 21.9716C215.411 21.8801 215.778 21.3643 215.686 20.8197L214.194 11.9442C214.103 11.3996 213.587 11.0323 213.042 11.1239C212.498 11.2154 212.13 11.7312 212.222 12.2758L213.548 20.1651L205.659 21.4915C205.114 21.583 204.747 22.0988 204.839 22.6434C204.93 23.1881 205.446 23.5553 205.991 23.4638L214.866 21.9716ZM0.999954 57.9078L1.59895 58.7086C38.2696 31.2772 77.9076 12.4032 115.137 5.22208C152.365 -1.9589 187.107 2.56235 214.12 21.8L214.7 20.9855L215.28 20.1709C187.694 0.525423 152.348 -3.99251 114.758 3.25828C77.1685 10.5089 37.2561 29.5377 0.400955 57.1071L0.999954 57.9078Z" fill="black" fill-opacity="0.7"/>
</svg>
