<svg width="179" height="59" viewBox="0 0 179 59" fill="none" xmlns="http://www.w3.org/2000/svg">
<path d="M178.411 56.3312C178.803 56.7197 178.807 57.3529 178.418 57.7454C178.029 58.1379 177.396 58.1411 177.004 57.7526L177.707 57.0419L178.411 56.3312ZM0.819148 20.3248C0.275985 20.2248 -0.0832785 19.7034 0.016696 19.1603L1.64595 10.309C1.74592 9.7658 2.26729 9.40653 2.81045 9.50651C3.35361 9.60649 3.71288 10.1279 3.6129 10.671L2.16468 18.5388L10.0325 19.9871C10.5757 20.087 10.9349 20.6084 10.835 21.1516C10.735 21.6947 10.2136 22.054 9.67045 21.954L0.819148 20.3248ZM177.707 57.0419L177.004 57.7526C123.23 4.52315 53.986 -15.9563 1.56759 20.1647L1.00017 19.3413L0.432748 18.5179C54.0178 -18.4071 124.34 2.80773 178.411 56.3312L177.707 57.0419Z" fill="black" fill-opacity="0.7"/>
</svg>
