<svg width="144" height="33" viewBox="0 0 144 33" fill="none" xmlns="http://www.w3.org/2000/svg">
<path d="M142.963 30.951C143.409 31.2768 143.506 31.9024 143.18 32.3484C142.855 32.7944 142.229 32.8918 141.783 32.5661L142.373 31.7586L142.963 30.951ZM0.967298 24.1644C0.415303 24.1464 -0.0176038 23.6844 0.0003644 23.1324L0.293211 14.1372C0.31118 13.5852 0.773224 13.1522 1.32522 13.1702C1.87721 13.1882 2.31012 13.6502 2.29215 14.2022L2.03184 22.198L10.0276 22.4583C10.5796 22.4763 11.0125 22.9383 10.9945 23.4903C10.9766 24.0423 10.5145 24.4752 9.96253 24.4572L0.967298 24.1644ZM142.373 31.7586L141.783 32.5661C93.9233 -2.38947 37.9862 -10.1188 1.68357 23.8947L0.999835 23.1649L0.316117 22.4352C37.6527 -12.547 94.7654 -4.25106 142.963 30.951L142.373 31.7586Z" fill="black" fill-opacity="0.7"/>
</svg>
