<svg width="178" height="61" viewBox="0 0 178 61" fill="none" xmlns="http://www.w3.org/2000/svg">
<path d="M177.624 58.7399C178.008 59.1363 177.999 59.7694 177.602 60.154C177.206 60.5385 176.573 60.5289 176.188 60.1325L176.906 59.4362L177.624 58.7399ZM0.799351 19.1373C0.258328 19.0263 -0.0902818 18.4977 0.0206936 17.9567L1.82922 9.1403C1.94019 8.59929 2.46874 8.25067 3.00976 8.36165C3.55079 8.47263 3.8994 9.00118 3.78842 9.5422L2.18084 17.379L10.0177 18.9866C10.5587 19.0976 10.9073 19.6261 10.7963 20.1671C10.6853 20.7082 10.1568 21.0568 9.61577 20.9458L0.799351 19.1373ZM176.906 59.4362L176.188 60.1325C123.505 5.82282 54.6914 -16.0575 1.55088 18.9924L1.0003 18.1577L0.449696 17.3229C54.773 -18.5072 124.65 4.13027 177.624 58.7399L176.906 59.4362Z" fill="black" fill-opacity="0.7"/>
</svg>
