<svg width="102" height="23" viewBox="0 0 102 23" fill="none" xmlns="http://www.w3.org/2000/svg">
<path d="M0.368013 21.0289C-0.0600313 21.3779 -0.124114 22.0078 0.22488 22.4359C0.573875 22.8639 1.20379 22.928 1.63183 22.579L0.999922 21.804L0.368013 21.0289ZM99.7676 22.9588C100.32 22.9775 100.782 22.5453 100.801 21.9933L101.106 12.9985C101.125 12.4465 100.693 11.9839 100.141 11.9651C99.5888 11.9464 99.1262 12.3787 99.1074 12.9306L98.836 20.926L90.8406 20.6546C90.2886 20.6359 89.826 21.0681 89.8072 21.6201C89.7885 22.1721 90.2208 22.6347 90.7727 22.6535L99.7676 22.9588ZM0.999922 21.804L1.63183 22.579C17.3956 9.72644 34.9494 2.44811 51.9381 2.02001C68.9023 1.59253 85.3818 7.99098 99.0708 22.6421L99.8015 21.9594L100.532 21.2767C86.4622 6.21785 69.4367 -0.421569 51.8877 0.0206482C34.3632 0.46225 16.3957 7.96118 0.368013 21.0289L0.999922 21.804Z" fill="black" fill-opacity="0.7"/>
</svg>
