<svg width="16" height="16" viewBox="0 0 16 16" fill="none" xmlns="http://www.w3.org/2000/svg">
<path fill-rule="evenodd" clip-rule="evenodd" d="M4.17724 2.74185C5.42932 1.82954 6.96672 1.39382 8.51122 1.51431C10.0556 1.63486 11.5067 2.30369 12.602 3.39907C13.6971 4.49439 14.3653 5.94475 14.4858 7.48892C14.6063 9.03342 14.1706 10.5708 13.2583 11.8229C12.3461 13.0746 11.017 13.9594 9.51025 14.318C8.07329 14.6599 6.56494 14.501 5.2329 13.8727L1.49364 15.1403C1.31351 15.2012 1.11445 15.1546 0.979972 15.0202C0.845509 14.8857 0.798934 14.6866 0.859855 14.5065L2.12646 10.7663C1.49861 9.43451 1.34036 7.92642 1.68212 6.48989C2.04072 4.98314 2.92553 3.65405 4.17724 2.74185ZM8.4331 2.51138C7.12623 2.40944 5.82554 2.77752 4.7661 3.54946C3.70687 4.32132 2.95823 5.44633 2.65478 6.72134C2.35138 7.9966 2.5135 9.33917 3.11181 10.5055C3.1734 10.6258 3.18352 10.7662 3.14013 10.8942L2.13134 13.8678L5.10595 12.86L5.20458 12.8375C5.30345 12.8251 5.40456 12.8422 5.49462 12.8883C6.66097 13.4866 8.00354 13.6488 9.2788 13.3454C10.5538 13.0419 11.6788 12.2933 12.4507 11.234C13.2226 10.1746 13.5907 8.87392 13.4888 7.56704C13.3868 6.26015 12.821 5.03302 11.894 4.1061C10.9671 3.1792 9.73998 2.61333 8.4331 2.51138ZM5.34032 7.49966C5.61627 7.49975 5.84013 7.72374 5.84032 7.99966C5.84032 8.27574 5.61639 8.49957 5.34032 8.49966H5.33349C5.05735 8.49965 4.83349 8.2758 4.83349 7.99966C4.83369 7.72369 5.05747 7.49967 5.33349 7.49966H5.34032ZM8.00732 7.49966C8.28315 7.49987 8.50712 7.72382 8.50732 7.99966C8.50732 8.27567 8.28327 8.49944 8.00732 8.49966H8.00048C7.72434 8.49966 7.50048 8.2758 7.50048 7.99966C7.50068 7.72368 7.72446 7.49966 8.00048 7.49966H8.00732ZM10.6743 7.49966C10.95 7.50001 11.1741 7.7239 11.1743 7.99966C11.1743 8.27559 10.9502 8.49931 10.6743 8.49966H10.6675C10.3913 8.49966 10.1675 8.2758 10.1675 7.99966C10.1677 7.72368 10.3915 7.49966 10.6675 7.49966H10.6743Z" fill="#A9A9AB"/>
</svg>
